<svg xmlns="http://www.w3.org/2000/svg" xmlns:xlink="http://www.w3.org/1999/xlink" version="1.1" x="0px" y="0px" viewBox="0 0 113.28 89" style="fill: #c62828; enable-background:new 0 0 113.28 89;" xml:space="preserve">
	<g>
		<path d="M58.79,75.06l0.02-0.01c4.59-1.66,7.42-4.68,10.39-8.17c2.67-3.13,5.29-5.61,8.02-7.57c3.14-2.25,6.87-3.64,11.41-4.25   c1.07-0.15,2.17-0.26,3.23-0.36c1.35-0.14,2.75-0.28,4.1-0.49c4.48-0.69,7.47-2.42,9.43-5.44c0.91-1.4,1.37-2.85,1.38-4.32   c0-1.17,0.01-2.33,0.02-3.5c0.03-4.63,0.05-9.41-0.04-14.11c-0.06-3.13-1.28-6.22-4.54-8.35c-6.06-3.96-17.83-5.65-17.83-5.65   c-3.77-0.59-7.66-1.21-11.51-1.53c-4.63-0.39-9.64-0.62-15.78-0.72c-0.32,0-12.9-0.28-22.2,2.97c-7.41,2.6-13.18,5.25-17.85,9.37   c-4.58,4.04-7.83,8.74-9.66,13.95c-0.56,1.6-0.89,3.52-0.94,5.55c-0.07,2.59-0.05,5.23-0.04,7.78c0.01,2.49,0.03,5.07-0.03,7.61   c-0.12,5.36,2.09,9.64,6.77,13.1c3.31,2.45,7.34,4.24,12.67,5.62c5.47,1.42,11.43,1.93,18.22,1.57   C49.66,78.01,55.95,76.48,58.79,75.06z M39.81,58.08c-4.84,0-9.1-0.48-13-1.47c-4.93-1.24-8.6-2.94-11.56-5.32   c-3.78-3.04-5.46-6.65-5.12-11.02c0.15-2,0.76-4.05,1.87-6.25c3.61-7.19,9.64-12.53,17.96-15.87c3.42-1.38,13.74-5.49,27.07-5.02   c7.15,0.25,14.57,0.4,22.04,1.53c5.29,0.79,10.76,1.62,15.98,3.42c2.97,1.03,5.21,2.45,6.84,4.35c2.41,2.82,2.31,6.06-0.27,8.65   c-1.54,1.55-3.48,2.38-5.16,3c-2.35,0.85-4.83,1.1-7.23,1.34c-0.84,0.08-1.71,0.17-2.56,0.28c-4.48,0.59-8.23,1.99-11.45,4.28   c-2.86,2.03-5.57,4.6-8.53,8.1c-2.76,3.27-6.06,5.65-9.81,7.07C52.02,57,46.67,57.98,41,58.07C40.58,58.08,40.19,58.08,39.81,58.08   z" />
		<g>
			<path d="M60.42,44.6c-0.21,0-4.8,0.38-7.25-4.48c-1.77-3.5-2.89-7.19-2.99-11.53c-0.19-8.22,6.36-11.12,6.52-11.19    c2.63-1.22,5.5-1.3,8.04-1.37h0.01h0.01c9.83,0.04,22.28,2.83,25.87,3.65c3.08,0.7,5.4,1.69,7.3,3.12    c1.22,0.91,1.9,1.91,2.02,2.97c0.12,1.08,0.9,4.8-8.81,6.83c-4.55,0.95-10.63,1.42-13.78,2.45C72.03,36.77,68.54,43.49,60.42,44.6    z" />
		</g>
		<g>
			<path d="M23.26,51.65c-3.9-1.19-6.61-2.88-8.12-5.88c-2.1-4.18-1.81-8.52,0.87-12.88c2.78-4.54,7.04-8.19,13.41-11.5    c3.1-1.62,6.62-2.7,11.37-3.66c3.74-0.75,9.87-0.26,8.55,5.83c-1.86,8.52-6.46,18.08-9.18,21.61    C36.68,49.65,29.36,53.51,23.26,51.65z" />
		</g>
		<g>
			<path d="M41.58,55.5c-6.98,0-2.07-5.72,0.74-8.54c3.35-3.35,3.61-9.8,8.59-6.67c3.58,2.24,6.3,8.58,3.25,12.05    C51.37,55.51,45.5,55.5,41.58,55.5z" />
		</g>
	</g>
</svg>
